<svg width="300" height="300" viewBox="0 0 300 300" fill="none" xmlns="http://www.w3.org/2000/svg">
  <path d="M150 60C150 60 180 90 190 110C200 130 220 170 200 200C180 230 150 240 120 230C90 220 85 190 85 170C85 150 95 120 115 100C135 80 150 60 150 60Z" fill="#CAB99C"/>
  <path d="M190 120C190 120 200 130 200 150C200 170 190 190 170 195C150 200 135 190 130 180C125 170 125 150 140 140C155 130 190 120 190 120Z" fill="#CAB99C"/>
  <path d="M125 170C125 170 140 195 155 190C170 185 170 170 165 160C160 150 145 150 135 155C125 160 125 170 125 170Z" fill="#CAB99C"/>
  <text x="150" y="270" text-anchor="middle" font-family="sans-serif" font-size="18" font-weight="600" fill="#CAB99C">THE SCULPTING ART</text>
</svg>
